
<svg xmlns="http://www.w3.org/2000/svg" version="1.1" xmlns:xlink="http://www.w3.org/1999/xlink" preserveAspectRatio="none" x="0px" y="0px" width="1920px" height="1080px" viewBox="0 0 1920 1080">
<defs/>

<g id="Layer_1">
<g transform="matrix( 1, 0, 0, 1, 314.4,168.95) ">
<g>
<g>
<path fill="#00005B" stroke="none" d="
M 238.4 17.6
Q 220.85 0 196 0
L 60 0
Q 35.15 0 17.55 17.6 0 35.15 0 60
L 0 196
Q 0 220.85 17.55 238.45 35.15 256 60 256
L 196 256
Q 220.85 256 238.4 238.45 256 220.85 256 196
L 256 60
Q 256 35.15 238.4 17.6 Z"/>
</g>
</g>
</g>

<g transform="matrix( 1, 0, 0, 1, 314.4,168.95) ">
<g>
<g>
<path fill="#9999FF" stroke="none" d="
M 100.1 76.85
Q 99.95 76 98.8 76
L 72.8 76
Q 72.4 76.1 72.15 76.4 71.9 76.7 72 77.1 72 80.45 71.4 83.6
L 38.1 179
Q 37.65 180.85 39.2 180.85
L 58.2 180.85
Q 58.9 180.85 59.4 180.5 59.95 180.1 60.1 179.4
L 67.7 155.9 104.8 155.9 113 179.65
Q 113.15 180.15 113.6 180.45 114.1 180.8 114.6 180.7
L 135.5 180.7
Q 136.95 180.7 136.5 179.15
L 100.1 76.85
M 85.9 94.35
L 86.1 94.35 88.3 102.1
Q 89.45 106.3 91 111
L 93.9 120.2
Q 95.7 126.2 96.6 128.85 97.95 132.7 98.9 136
L 73.5 136
Q 75.8 129.6 77.9 122
L 82.5 107.2
Q 84.6 100.75 85.9 94.35 Z"/>
</g>
</g>
</g>

<g transform="matrix( 1, 0, 0, 1, 314.4,168.95) ">
<g>
<g>
<path fill="#9999FF" stroke="none" d="
M 217.7 132
Q 217.7 121.65 215.5 116 213.55 110.65 209.6 106.85 205.5 102.9 200.3 101.2 195.75 99.7 190.9 99.7 184.55 99.8 178.8 101.7 172.85 103.85 168.2 107.95 168.05 106.25 167.6 104.6
L 166.9 102.45
Q 166.8 102 166.6 101.8 166.35 101.5 166.1 101.35 165.4 101 164.5 101
L 148.4 101
Q 147.8 101 147.4 101.35 147.25 101.45 147.15 101.8 147.05 102.05 147.2 102.35
L 147.7 113.85
Q 147.8 116 147.8 119.95
L 147.8 179.35
Q 147.65 179.45 147.9 179.7 147.9 180 148.05 180.2 148.1 180.4 148.35 180.55
L 148.8 180.8 149.3 180.85 168.3 180.85
Q 169.6 180.85 169.6 179.4
L 169.6 124.2
Q 172.3 121.8 175.6 120.45 179.1 119 183.2 119 186.7 118.75 189.75 120.65 192.7 122.55 194.1 125.85 195.85 130.05 196 134.5
L 196 179.7
Q 196 180.05 196.15 180.25
L 196.55 180.65
Q 196.7 180.8 197.05 180.9 197.3 181 197.6 180.9
L 216.4 180.7
Q 217.7 180.7 217.7 179.35
L 217.7 132 Z"/>
</g>
</g>
</g>
</g>
</svg>
